<svg width="130" height="237" viewBox="0 0 130 237" fill="none" xmlns="http://www.w3.org/2000/svg">
<path d="M70.1396 44.1058L30.3633 52.5605C29.7057 52.7003 29.0413 52.269 28.8241 51.5642L16.5001 12.16C16.2458 11.3441 16.6846 10.4924 17.4389 10.3321L64.7708 0.271425C65.5315 0.10973 66.2724 0.710641 66.3719 1.5594L71.142 42.5767C71.2302 43.3089 70.7922 43.9745 70.1411 44.1129L70.1396 44.1058Z" fill="url(#paint0_linear_47_1719)"/>
<path d="M84.4626 48.7056C81.7164 48.4931 79.4632 46.4211 78.8845 43.6983L78.0029 39.5505C77.5246 37.3003 78.9348 35.0984 81.1568 34.6261L81.324 34.5906C83.358 34.1583 84.6534 32.1356 84.2156 30.0758L82.2619 20.8845C81.8241 18.8248 79.818 17.5039 77.784 17.9362L9.26415 32.5006C7.23022 32.9329 5.93474 34.9556 6.37255 37.0153L8.32622 46.2066C8.76403 48.2664 10.7702 49.5873 12.8041 49.1549L12.9713 49.1194C15.1933 48.6471 17.3773 50.085 17.8556 52.3353L18.7372 56.483C19.3159 59.2058 18.0933 62.0166 15.678 63.3262C11.9884 65.3196 7.44434 69.4926 9.16561 77.5905L40.2684 223.918C41.7977 231.113 48.7982 235.722 55.903 234.212L117.228 221.177C124.332 219.667 128.853 212.609 127.324 205.414L96.2207 59.0864C94.4995 50.9884 88.651 49.0245 84.4695 48.7042L84.4626 48.7056Z" fill="#F5F5F5" fill-opacity="0.8"/>
<path d="M84.4626 48.7056C81.7164 48.4931 79.4632 46.4211 78.8845 43.6983L78.0029 39.5505C77.5246 37.3003 78.9348 35.0984 81.1568 34.6261L81.324 34.5906C83.358 34.1583 84.6534 32.1356 84.2156 30.0758L82.2619 20.8845C81.8241 18.8248 79.818 17.5039 77.784 17.9362L9.26415 32.5006C7.23022 32.9329 5.93474 34.9556 6.37255 37.0153L8.32622 46.2066C8.76403 48.2664 10.7702 49.5873 12.8041 49.1549L12.9713 49.1194C15.1933 48.6471 17.3773 50.085 17.8556 52.3353L18.7372 56.483C19.3159 59.2058 18.0933 62.0166 15.678 63.3262C11.9884 65.3196 7.44434 69.4926 9.16561 77.5905L40.2684 223.918C41.7977 231.113 48.7982 235.722 55.903 234.212L117.228 221.177C124.332 219.667 128.853 212.609 127.324 205.414L96.2207 59.0864C94.4995 50.9884 88.651 49.0245 84.4695 48.7042L84.4626 48.7056Z" fill="url(#paint1_linear_47_1719)" fill-opacity="0.5"/>
<path d="M84.4626 48.7056C81.7164 48.4931 79.4632 46.4211 78.8845 43.6983L78.0029 39.5505C77.5246 37.3003 78.9348 35.0984 81.1568 34.6261L81.324 34.5906C83.358 34.1583 84.6534 32.1356 84.2156 30.0758L82.2619 20.8845C81.8241 18.8248 79.818 17.5039 77.784 17.9362L9.26415 32.5006C7.23022 32.9329 5.93474 34.9556 6.37255 37.0153L8.32622 46.2066C8.76403 48.2664 10.7702 49.5873 12.8041 49.1549L12.9713 49.1194C15.1933 48.6471 17.3773 50.085 17.8556 52.3353L18.7372 56.483C19.3159 59.2058 18.0933 62.0166 15.678 63.3262C11.9884 65.3196 7.44434 69.4926 9.16561 77.5905L40.2684 223.918C41.7977 231.113 48.7982 235.722 55.903 234.212L117.228 221.177C124.332 219.667 128.853 212.609 127.324 205.414L96.2207 59.0864C94.4995 50.9884 88.651 49.0245 84.4695 48.7042L84.4626 48.7056Z" fill="url(#paint2_linear_47_1719)" fill-opacity="0.5"/>
<defs>
<linearGradient id="paint0_linear_47_1719" x1="41.1049" y1="5.30177" x2="50.253" y2="48.3403" gradientUnits="userSpaceOnUse">
<stop stop-color="#D7BEBE"/>
<stop offset="1" stop-color="#A97373"/>
</linearGradient>
<linearGradient id="paint1_linear_47_1719" x1="43.5276" y1="25.2177" x2="86.5653" y2="227.694" gradientUnits="userSpaceOnUse">
<stop stop-color="#E1E1E1"/>
<stop offset="0.0729167" stop-color="white" stop-opacity="0"/>
</linearGradient>
<linearGradient id="paint2_linear_47_1719" x1="43.5276" y1="25.2177" x2="86.5653" y2="227.694" gradientUnits="userSpaceOnUse">
<stop offset="0.927083" stop-color="white" stop-opacity="0"/>
<stop offset="1" stop-color="white"/>
</linearGradient>
</defs>
</svg>
