<svg width="130" height="237" viewBox="0 0 130 237" fill="none" xmlns="http://www.w3.org/2000/svg">
<path d="M28.6409 52.5605L68.4172 44.1058C69.0748 43.966 69.5063 43.3018 69.4181 42.5696L64.6495 1.55937C64.55 0.710609 63.8027 0.111068 63.0484 0.271393L15.7165 10.3321C14.9558 10.4938 14.5234 11.3441 14.7777 12.16L27.1033 51.5713C27.3205 52.2761 27.9913 52.706 28.6424 52.5676L28.6409 52.5605Z" fill="url(#paint0_linear_137_653)"/>
<path d="M15.5918 62.9939C18.014 61.6828 19.2297 58.8735 18.6509 56.1507L17.7693 52.003C17.291 49.7527 15.1071 48.3148 12.8851 48.7871L12.7179 48.8226C10.684 49.255 8.67778 47.9341 8.23996 45.8743L6.28629 36.683C5.84848 34.6233 7.14396 32.6006 9.17789 32.1683L77.6978 17.6039C79.7317 17.1716 81.7379 18.4925 82.1757 20.5522L84.1294 29.7435C84.5672 31.8033 83.2717 33.826 81.2378 34.2583L81.0706 34.2938C78.8486 34.7661 77.4383 36.968 77.9166 39.2182L78.7982 43.366C79.377 46.0888 81.6372 48.1593 84.3763 48.3733C88.5577 48.6937 94.4063 50.6576 96.1275 58.7556L127.23 205.083C128.76 212.278 124.239 219.336 117.134 220.846L55.8098 233.881C48.705 235.391 41.7045 230.782 40.1752 223.587L9.07239 77.2597C7.35112 69.1618 11.8952 64.9888 15.5848 62.9954L15.5918 62.9939Z" fill="#F5F5F5" fill-opacity="0.8"/>
<path d="M15.5918 62.9939C18.014 61.6828 19.2297 58.8735 18.6509 56.1507L17.7693 52.003C17.291 49.7527 15.1071 48.3148 12.8851 48.7871L12.7179 48.8226C10.684 49.255 8.67778 47.9341 8.23996 45.8743L6.28629 36.683C5.84848 34.6233 7.14396 32.6006 9.17789 32.1683L77.6978 17.6039C79.7317 17.1716 81.7379 18.4925 82.1757 20.5522L84.1294 29.7435C84.5672 31.8033 83.2717 33.826 81.2378 34.2583L81.0706 34.2938C78.8486 34.7661 77.4383 36.968 77.9166 39.2182L78.7982 43.366C79.377 46.0888 81.6372 48.1593 84.3763 48.3733C88.5577 48.6937 94.4063 50.6576 96.1275 58.7556L127.23 205.083C128.76 212.278 124.239 219.336 117.134 220.846L55.8098 233.881C48.705 235.391 41.7045 230.782 40.1752 223.587L9.07239 77.2597C7.35112 69.1618 11.8952 64.9888 15.5848 62.9954L15.5918 62.9939Z" fill="url(#paint1_linear_137_653)" fill-opacity="0.5"/>
<path d="M15.5918 62.9939C18.014 61.6828 19.2297 58.8735 18.6509 56.1507L17.7693 52.003C17.291 49.7527 15.1071 48.3148 12.8851 48.7871L12.7179 48.8226C10.684 49.255 8.67778 47.9341 8.23996 45.8743L6.28629 36.683C5.84848 34.6233 7.14396 32.6006 9.17789 32.1683L77.6978 17.6039C79.7317 17.1716 81.7379 18.4925 82.1757 20.5522L84.1294 29.7435C84.5672 31.8033 83.2717 33.826 81.2378 34.2583L81.0706 34.2938C78.8486 34.7661 77.4383 36.968 77.9166 39.2182L78.7982 43.366C79.377 46.0888 81.6372 48.1593 84.3763 48.3733C88.5577 48.6937 94.4063 50.6576 96.1275 58.7556L127.23 205.083C128.76 212.278 124.239 219.336 117.134 220.846L55.8098 233.881C48.705 235.391 41.7045 230.782 40.1752 223.587L9.07239 77.2597C7.35112 69.1618 11.8952 64.9888 15.5848 62.9954L15.5918 62.9939Z" fill="url(#paint2_linear_137_653)" fill-opacity="0.5"/>
<path d="M58 86H79V193H58V86Z" fill="white"/>
<path d="M79 138.5H58" stroke="#ED1C24" stroke-width="2" stroke-linecap="round"/>
<path d="M47.6238 142.32C52.8108 143.045 57.6113 138.207 57.6113 138.207C57.6113 138.207 52.7811 133.27 47.6238 134.093C45.7487 134.393 44.2228 135.936 44.2228 138.207C44.2228 140.477 45.7437 142.058 47.6238 142.32Z" stroke="#ED1C24" stroke-width="2" stroke-linecap="round" stroke-linejoin="round"/>
<path d="M57.6117 138.207L66.5391 152.786" stroke="#ED1C24" stroke-width="2" stroke-linecap="round" stroke-linejoin="round"/>
<path d="M57.6113 138.207L48.684 152.786" stroke="#ED1C24" stroke-width="2" stroke-linecap="round" stroke-linejoin="round"/>
<path d="M53.3957 127.64C52.8209 132.845 57.7955 137.504 57.7955 137.504C57.7955 137.504 62.5907 132.534 61.6191 127.402C61.2676 125.537 59.6811 124.056 57.4093 124.121C55.1376 124.187 53.603 125.753 53.3957 127.64Z" stroke="#ED1C24" stroke-width="2" stroke-linecap="round" stroke-linejoin="round"/>
<rect x="51.3955" y="221.838" width="68" height="2.99981" rx="1.49991" transform="rotate(-12 51.3955 221.838)" fill="#00AEEF" fill-opacity="0.2"/>
<defs>
<linearGradient id="paint0_linear_137_653" x1="39.3824" y1="5.30175" x2="48.5305" y2="48.3402" gradientUnits="userSpaceOnUse">
<stop stop-color="#D7BEBE"/>
<stop offset="1" stop-color="#A97373"/>
</linearGradient>
<linearGradient id="paint1_linear_137_653" x1="43.4343" y1="24.8868" x2="86.4721" y2="227.363" gradientUnits="userSpaceOnUse">
<stop stop-color="#E1E1E1"/>
<stop offset="0.0729167" stop-color="white" stop-opacity="0"/>
</linearGradient>
<linearGradient id="paint2_linear_137_653" x1="43.4343" y1="24.8868" x2="86.4721" y2="227.363" gradientUnits="userSpaceOnUse">
<stop offset="0.927083" stop-color="white" stop-opacity="0"/>
<stop offset="1" stop-color="white"/>
</linearGradient>
</defs>
</svg>
