<svg width="130" height="237" viewBox="0 0 130 237" fill="none" xmlns="http://www.w3.org/2000/svg">
<path d="M101.359 52.5605L61.5828 44.1058C60.9252 43.966 60.4937 43.3018 60.5819 42.5696L65.3505 1.55937C65.45 0.710609 66.1973 0.111068 66.9516 0.271393L114.283 10.3321C115.044 10.4938 115.477 11.3441 115.222 12.16L102.897 51.5713C102.68 52.2761 102.009 52.706 101.358 52.5676L101.359 52.5605Z" fill="url(#paint0_linear_116_810)"/>
<path d="M114.408 62.9939C111.986 61.6828 110.77 58.8735 111.349 56.1507L112.231 52.003C112.709 49.7527 114.893 48.3148 117.115 48.7871L117.282 48.8226C119.316 49.255 121.322 47.9341 121.76 45.8743L123.714 36.683C124.152 34.6233 122.856 32.6006 120.822 32.1683L52.3022 17.6039C50.2683 17.1716 48.2621 18.4925 47.8243 20.5522L45.8706 29.7435C45.4328 31.8033 46.7283 33.826 48.7622 34.2583L48.9294 34.2938C51.1514 34.7661 52.5617 36.968 52.0834 39.2182L51.2018 43.366C50.623 46.0888 48.3628 48.1593 45.6237 48.3733C41.4423 48.6937 35.5937 50.6576 33.8725 58.7556L2.76969 205.083C1.24034 212.278 5.76085 219.336 12.8657 220.846L74.1902 233.881C81.295 235.391 88.2955 230.782 89.8248 223.587L120.928 77.2597C122.649 69.1618 118.105 64.9888 114.415 62.9954L114.408 62.9939Z" fill="#F5F5F5" fill-opacity="0.8"/>
<path d="M114.408 62.9939C111.986 61.6828 110.77 58.8735 111.349 56.1507L112.231 52.003C112.709 49.7527 114.893 48.3148 117.115 48.7871L117.282 48.8226C119.316 49.255 121.322 47.9341 121.76 45.8743L123.714 36.683C124.152 34.6233 122.856 32.6006 120.822 32.1683L52.3022 17.6039C50.2683 17.1716 48.2621 18.4925 47.8243 20.5522L45.8706 29.7435C45.4328 31.8033 46.7283 33.826 48.7622 34.2583L48.9294 34.2938C51.1514 34.7661 52.5617 36.968 52.0834 39.2182L51.2018 43.366C50.623 46.0888 48.3628 48.1593 45.6237 48.3733C41.4423 48.6937 35.5937 50.6576 33.8725 58.7556L2.76969 205.083C1.24034 212.278 5.76085 219.336 12.8657 220.846L74.1902 233.881C81.295 235.391 88.2955 230.782 89.8248 223.587L120.928 77.2597C122.649 69.1618 118.105 64.9888 114.415 62.9954L114.408 62.9939Z" fill="url(#paint1_linear_116_810)" fill-opacity="0.5"/>
<path d="M114.408 62.9939C111.986 61.6828 110.77 58.8735 111.349 56.1507L112.231 52.003C112.709 49.7527 114.893 48.3148 117.115 48.7871L117.282 48.8226C119.316 49.255 121.322 47.9341 121.76 45.8743L123.714 36.683C124.152 34.6233 122.856 32.6006 120.822 32.1683L52.3022 17.6039C50.2683 17.1716 48.2621 18.4925 47.8243 20.5522L45.8706 29.7435C45.4328 31.8033 46.7283 33.826 48.7622 34.2583L48.9294 34.2938C51.1514 34.7661 52.5617 36.968 52.0834 39.2182L51.2018 43.366C50.623 46.0888 48.3628 48.1593 45.6237 48.3733C41.4423 48.6937 35.5937 50.6576 33.8725 58.7556L2.76969 205.083C1.24034 212.278 5.76085 219.336 12.8657 220.846L74.1902 233.881C81.295 235.391 88.2955 230.782 89.8248 223.587L120.928 77.2597C122.649 69.1618 118.105 64.9888 114.415 62.9954L114.408 62.9939Z" fill="url(#paint2_linear_116_810)" fill-opacity="0.5"/>
<path d="M72 86H51V193H72V86Z" fill="white"/>
<path d="M51 138.5H72" stroke="#ED1C24" stroke-width="2" stroke-linecap="round"/>
<path d="M82.3762 142.32C77.1892 143.045 72.3887 138.207 72.3887 138.207C72.3887 138.207 77.2189 133.27 82.3762 134.093C84.2513 134.393 85.7772 135.936 85.7772 138.207C85.7772 140.477 84.2563 142.058 82.3762 142.32Z" stroke="#ED1C24" stroke-width="2" stroke-linecap="round" stroke-linejoin="round"/>
<path d="M72.3883 138.207L63.4609 152.786" stroke="#ED1C24" stroke-width="2" stroke-linecap="round" stroke-linejoin="round"/>
<path d="M72.3887 138.207L81.316 152.786" stroke="#ED1C24" stroke-width="2" stroke-linecap="round" stroke-linejoin="round"/>
<path d="M76.6043 127.64C77.1791 132.845 72.2045 137.504 72.2045 137.504C72.2045 137.504 67.4093 132.534 68.3809 127.402C68.7324 125.537 70.3189 124.056 72.5907 124.121C74.8624 124.187 76.397 125.753 76.6043 127.64Z" stroke="#ED1C24" stroke-width="2" stroke-linecap="round" stroke-linejoin="round"/>
<rect width="68" height="154" rx="8" transform="matrix(-0.978148 -0.207912 -0.207912 0.978148 110 74.1377)" fill="#00AEEF" fill-opacity="0.2"/>
<defs>
<linearGradient id="paint0_linear_116_810" x1="90.6176" y1="5.30175" x2="81.4695" y2="48.3402" gradientUnits="userSpaceOnUse">
<stop stop-color="#D7BEBE"/>
<stop offset="1" stop-color="#A97373"/>
</linearGradient>
<linearGradient id="paint1_linear_116_810" x1="86.5657" y1="24.8868" x2="43.5279" y2="227.363" gradientUnits="userSpaceOnUse">
<stop stop-color="#E1E1E1"/>
<stop offset="0.0729167" stop-color="white" stop-opacity="0"/>
</linearGradient>
<linearGradient id="paint2_linear_116_810" x1="86.5657" y1="24.8868" x2="43.5279" y2="227.363" gradientUnits="userSpaceOnUse">
<stop offset="0.927083" stop-color="white" stop-opacity="0"/>
<stop offset="1" stop-color="white"/>
</linearGradient>
</defs>
</svg>
