<svg width="48" height="48" viewBox="0 0 48 48" fill="none" xmlns="http://www.w3.org/2000/svg">
<path fill-rule="evenodd" clip-rule="evenodd" d="M32.984 26H25.984V33C25.984 33.5304 25.7733 34.0391 25.3982 34.4142C25.0231 34.7893 24.5144 35 23.984 35C23.4536 35 22.9449 34.7893 22.5698 34.4142C22.1947 34.0391 21.984 33.5304 21.984 33V26H14.984C14.4536 26 13.9449 25.7893 13.5698 25.4142C13.1947 25.0391 12.984 24.5304 12.984 24C12.984 23.4696 13.1947 22.9609 13.5698 22.5858C13.9449 22.2107 14.4536 22 14.984 22H21.984V15C21.984 14.4696 22.1947 13.9609 22.5698 13.5858C22.9449 13.2107 23.4536 13 23.984 13C24.5144 13 25.0231 13.2107 25.3982 13.5858C25.7733 13.9609 25.984 14.4696 25.984 15V22H32.984C33.5144 22 34.0231 22.2107 34.3982 22.5858C34.7733 22.9609 34.984 23.4696 34.984 24C34.984 24.5304 34.7733 25.0391 34.3982 25.4142C34.0231 25.7893 33.5144 26 32.984 26ZM24 2C11.85 2 2 11.85 2 24C2 36.15 11.85 46 24 46C36.15 46 46 36.15 46 24C46 11.85 36.15 2 24 2Z" fill="black"/>
</svg>
