<svg width="130" height="237" viewBox="0 0 130 237" fill="none" xmlns="http://www.w3.org/2000/svg">
<path d="M70.1396 44.1058L30.3633 52.5605C29.7057 52.7003 29.0413 52.269 28.8241 51.5642L16.5001 12.16C16.2458 11.3441 16.6846 10.4924 17.4389 10.3321L64.7708 0.271425C65.5315 0.10973 66.2724 0.710641 66.3719 1.5594L71.142 42.5767C71.2302 43.3089 70.7922 43.9745 70.1411 44.1129L70.1396 44.1058Z" fill="url(#paint0_linear_47_1733)"/>
<path d="M84.4626 48.7056C81.7164 48.4931 79.4632 46.4211 78.8845 43.6983L78.0029 39.5505C77.5246 37.3003 78.9348 35.0984 81.1568 34.6261L81.324 34.5906C83.358 34.1583 84.6534 32.1356 84.2156 30.0758L82.2619 20.8845C81.8241 18.8248 79.818 17.5039 77.784 17.9362L9.26415 32.5006C7.23022 32.9329 5.93474 34.9556 6.37255 37.0153L8.32622 46.2066C8.76403 48.2664 10.7702 49.5873 12.8041 49.1549L12.9713 49.1194C15.1933 48.6471 17.3773 50.085 17.8556 52.3353L18.7372 56.483C19.3159 59.2058 18.0933 62.0166 15.678 63.3262C11.9884 65.3196 7.44434 69.4926 9.16561 77.5905L40.2684 223.918C41.7977 231.113 48.7982 235.722 55.903 234.212L117.228 221.177C124.332 219.667 128.853 212.609 127.324 205.414L96.2207 59.0864C94.4995 50.9884 88.651 49.0245 84.4695 48.7042L84.4626 48.7056Z" fill="#F5F5F5" fill-opacity="0.8"/>
<path d="M84.4626 48.7056C81.7164 48.4931 79.4632 46.4211 78.8845 43.6983L78.0029 39.5505C77.5246 37.3003 78.9348 35.0984 81.1568 34.6261L81.324 34.5906C83.358 34.1583 84.6534 32.1356 84.2156 30.0758L82.2619 20.8845C81.8241 18.8248 79.818 17.5039 77.784 17.9362L9.26415 32.5006C7.23022 32.9329 5.93474 34.9556 6.37255 37.0153L8.32622 46.2066C8.76403 48.2664 10.7702 49.5873 12.8041 49.1549L12.9713 49.1194C15.1933 48.6471 17.3773 50.085 17.8556 52.3353L18.7372 56.483C19.3159 59.2058 18.0933 62.0166 15.678 63.3262C11.9884 65.3196 7.44434 69.4926 9.16561 77.5905L40.2684 223.918C41.7977 231.113 48.7982 235.722 55.903 234.212L117.228 221.177C124.332 219.667 128.853 212.609 127.324 205.414L96.2207 59.0864C94.4995 50.9884 88.651 49.0245 84.4695 48.7042L84.4626 48.7056Z" fill="url(#paint1_linear_47_1733)" fill-opacity="0.5"/>
<path d="M84.4626 48.7056C81.7164 48.4931 79.4632 46.4211 78.8845 43.6983L78.0029 39.5505C77.5246 37.3003 78.9348 35.0984 81.1568 34.6261L81.324 34.5906C83.358 34.1583 84.6534 32.1356 84.2156 30.0758L82.2619 20.8845C81.8241 18.8248 79.818 17.5039 77.784 17.9362L9.26415 32.5006C7.23022 32.9329 5.93474 34.9556 6.37255 37.0153L8.32622 46.2066C8.76403 48.2664 10.7702 49.5873 12.8041 49.1549L12.9713 49.1194C15.1933 48.6471 17.3773 50.085 17.8556 52.3353L18.7372 56.483C19.3159 59.2058 18.0933 62.0166 15.678 63.3262C11.9884 65.3196 7.44434 69.4926 9.16561 77.5905L40.2684 223.918C41.7977 231.113 48.7982 235.722 55.903 234.212L117.228 221.177C124.332 219.667 128.853 212.609 127.324 205.414L96.2207 59.0864C94.4995 50.9884 88.651 49.0245 84.4695 48.7042L84.4626 48.7056Z" fill="url(#paint2_linear_47_1733)" fill-opacity="0.5"/>
<path fill-rule="evenodd" clip-rule="evenodd" d="M73.984 120H66.984V127C66.984 127.53 66.7733 128.039 66.3982 128.414C66.0231 128.789 65.5144 129 64.984 129C64.4536 129 63.9449 128.789 63.5698 128.414C63.1947 128.039 62.984 127.53 62.984 127V120H55.984C55.4536 120 54.9449 119.789 54.5698 119.414C54.1947 119.039 53.984 118.53 53.984 118C53.984 117.47 54.1947 116.961 54.5698 116.586C54.9449 116.211 55.4536 116 55.984 116H62.984V109C62.984 108.47 63.1947 107.961 63.5698 107.586C63.9449 107.211 64.4536 107 64.984 107C65.5144 107 66.0231 107.211 66.3982 107.586C66.7733 107.961 66.984 108.47 66.984 109V116H73.984C74.5144 116 75.0231 116.211 75.3982 116.586C75.7733 116.961 75.984 117.47 75.984 118C75.984 118.53 75.7733 119.039 75.3982 119.414C75.0231 119.789 74.5144 120 73.984 120ZM65 96C52.85 96 43 105.85 43 118C43 130.15 52.85 140 65 140C77.15 140 87 130.15 87 118C87 105.85 77.15 96 65 96Z" fill="black"/>
<defs>
<linearGradient id="paint0_linear_47_1733" x1="41.1049" y1="5.30177" x2="50.253" y2="48.3403" gradientUnits="userSpaceOnUse">
<stop stop-color="#D7BEBE"/>
<stop offset="1" stop-color="#A97373"/>
</linearGradient>
<linearGradient id="paint1_linear_47_1733" x1="43.5276" y1="25.2177" x2="86.5653" y2="227.694" gradientUnits="userSpaceOnUse">
<stop stop-color="#E1E1E1"/>
<stop offset="0.0729167" stop-color="white" stop-opacity="0"/>
</linearGradient>
<linearGradient id="paint2_linear_47_1733" x1="43.5276" y1="25.2177" x2="86.5653" y2="227.694" gradientUnits="userSpaceOnUse">
<stop offset="0.927083" stop-color="white" stop-opacity="0"/>
<stop offset="1" stop-color="white"/>
</linearGradient>
</defs>
</svg>
