<svg width="127" height="44" viewBox="0 0 127 44" fill="none" xmlns="http://www.w3.org/2000/svg">
<rect width="127" height="44" rx="22" fill="black"/>
<path d="M32.2969 15.2656V25.7031H30.5625V22.0156H28.5625V20.5781H30.5625V19.2344H28.5625V17.8281H30.5625V15.2656H32.2969ZM20.4844 22.4062C20.9766 22.4062 21.5156 22.4062 22.0781 22.3984V17.7188H20.8438V16.3281H28.3594V17.7188H27.1094V22.2344C27.6406 22.1953 28.1562 22.1484 28.6562 22.0938L28.7344 23.3594C26.0547 23.7891 22.9219 23.8438 20.6719 23.8438L20.4844 22.4062ZM23.0156 29.1094V24.8906H24.7656V27.7031H32.6562V29.1094H23.0156ZM23.7656 22.375C24.3125 22.3672 24.875 22.3438 25.4375 22.3203V17.7188H23.7656V22.375ZM39.625 19.2812C39.625 21.5938 40.9844 24.0312 43.2656 24.9844L42.3125 26.3594C40.6406 25.6328 39.4219 24.1562 38.7734 22.3594C38.125 24.2969 36.8828 25.9219 35.2344 26.7031L34.2344 25.3438C36.4609 24.3125 37.8516 21.6797 37.8594 19.2812V18.0938H34.75V16.6562H42.7188V18.0938H39.625V19.2812ZM44.2969 29.3906V15.2656H46.0469V29.3906H44.2969ZM64.8281 26.25V27.6719H51.9219V26.25H54.9062V22.6797C53.7812 22.0312 53.1016 21.0156 53.1094 19.7656C53.1016 17.5156 55.3047 16.0312 58.3438 16.0312C61.3984 16.0312 63.6172 17.5156 63.6094 19.7656C63.6172 21 62.9531 21.9922 61.8594 22.6406V26.25H64.8281ZM54.8125 19.7656C54.8047 21.2109 56.2344 22.1328 58.3438 22.125C60.4453 22.1328 61.9062 21.2109 61.9062 19.7656C61.9062 18.2969 60.4453 17.3984 58.3438 17.4062C56.2344 17.3984 54.8047 18.2969 54.8125 19.7656ZM56.625 26.25H60.0938V23.3047C59.5547 23.4219 58.9688 23.4844 58.3438 23.4844C57.7344 23.4844 57.1562 23.4219 56.625 23.3125V26.25ZM70.8281 18.2812C70.8203 19.8281 72.0312 21.3516 74.25 21.9531L73.4375 23.2969C71.8125 22.8516 70.6406 21.9062 69.9922 20.6797C69.375 22.0625 68.2031 23.1562 66.5156 23.6562L65.7031 22.3125C67.9141 21.6406 69.0938 19.9844 69.0938 18.2812V18.2031H66.1406V16.8281H69.0938V15.2031H70.8438V16.8281H73.7812V18.2031H70.8281V18.2812ZM68 26.7188C67.9844 25.0391 69.8281 24.0938 72.7969 24.0938C75.7812 24.0938 77.6172 25.0391 77.625 26.7188C77.6172 28.3984 75.7812 29.375 72.7969 29.375C69.8281 29.375 67.9844 28.3984 68 26.7188ZM69.7188 26.7188C69.7109 27.5547 70.8359 28.0312 72.7969 28.0312C74.7969 28.0312 75.8906 27.5547 75.8906 26.7188C75.8906 25.875 74.7969 25.4297 72.7969 25.4219C70.8359 25.4297 69.7109 25.875 69.7188 26.7188ZM73.3594 20.5469V19.1406H75.8438V15.2656H77.5781V23.8125H75.8438V20.5469H73.3594ZM90.6406 15.2656V20.8906H92.8125V22.3281H90.6406V29.3906H88.9219V15.2656H90.6406ZM79.5 18.8281V17.4375H82.8438V15.4688H84.5781V17.4375H87.8281V18.8281H79.5ZM80.1562 23.0781C80.1406 21.125 81.6562 19.7422 83.7188 19.75C85.75 19.7422 87.2578 21.125 87.2656 23.0781C87.2578 25.0234 85.75 26.3906 83.7188 26.3906C81.6562 26.3906 80.1406 25.0234 80.1562 23.0781ZM81.8125 23.0781C81.8047 24.2266 82.6094 24.9609 83.7188 24.9531C84.8047 24.9609 85.5938 24.2266 85.6094 23.0781C85.5938 21.9297 84.8047 21.1719 83.7188 21.1719C82.6094 21.1719 81.8047 21.9297 81.8125 23.0781ZM105.203 15.2656V29.3906H103.453V15.2656H105.203ZM93.5 25.5C97.2031 23.7422 98.9062 21.3516 99.2188 18.1406H94.2188V16.7656H100.984C100.984 20.9688 99.3516 24.5391 94.4062 26.8906L93.5 25.5Z" fill="white"/>
</svg>
