<svg width="45" height="45" viewBox="0 0 45 45" fill="none" xmlns="http://www.w3.org/2000/svg">
<path fill-rule="evenodd" clip-rule="evenodd" d="M31.6515 24.0042H24.6515V31.0042C24.6515 31.5346 24.4408 32.0433 24.0657 32.4184C23.6906 32.7934 23.1819 33.0042 22.6515 33.0042C22.121 33.0042 21.6123 32.7934 21.2373 32.4184C20.8622 32.0433 20.6515 31.5346 20.6515 31.0042V24.0042H13.6515C13.121 24.0042 12.6123 23.7934 12.2373 23.4184C11.8622 23.0433 11.6515 22.5346 11.6515 22.0042C11.6515 21.4737 11.8622 20.965 12.2373 20.5899C12.6123 20.2149 13.121 20.0042 13.6515 20.0042H20.6515V13.0042C20.6515 12.4737 20.8622 11.965 21.2373 11.5899C21.6123 11.2149 22.121 11.0042 22.6515 11.0042C23.1819 11.0042 23.6906 11.2149 24.0657 11.5899C24.4408 11.965 24.6515 12.4737 24.6515 13.0042V20.0042H31.6515C32.1819 20.0042 32.6906 20.2149 33.0657 20.5899C33.4408 20.965 33.6515 21.4737 33.6515 22.0042C33.6515 22.5346 33.4408 23.0433 33.0657 23.4184C32.6906 23.7934 32.1819 24.0042 31.6515 24.0042ZM22.6675 0.00415039C10.5175 0.00415039 0.66748 9.85415 0.66748 22.0042C0.66748 34.1542 10.5175 44.0042 22.6675 44.0042C34.8175 44.0042 44.6675 34.1542 44.6675 22.0042C44.6675 9.85415 34.8175 0.00415039 22.6675 0.00415039Z" fill="black"/>
</svg>
