<svg width="34" height="34" viewBox="0 0 34 34" fill="none" xmlns="http://www.w3.org/2000/svg">
<path fill-rule="evenodd" clip-rule="evenodd" d="M17 25.1585C13.004 25.1585 9.6695 22.817 8.9075 19.706C8.7365 19.004 9.413 18.353 10.283 18.353H23.717C24.587 18.353 25.2635 19.004 25.0925 19.706C24.3305 22.817 20.996 25.1585 17 25.1585ZM12.929 10.3625C13.5178 10.3621 14.0826 10.5956 14.4992 11.0116C14.9158 11.4277 15.1501 11.9922 15.1505 12.581C15.1509 13.1698 14.9174 13.7346 14.5013 14.1512C14.0853 14.5678 13.5208 14.8021 12.932 14.8025C12.6405 14.8027 12.3517 14.7454 12.0823 14.6341C11.8129 14.5227 11.5681 14.3593 11.3618 14.1533C10.9452 13.7373 10.7109 13.1728 10.7105 12.584C10.7101 11.9952 10.9436 11.4304 11.3597 11.0138C11.7757 10.5971 12.3402 10.3629 12.929 10.3625ZM21.3815 10.3625C21.6797 10.3513 21.9771 10.4004 22.2559 10.5067C22.5347 10.6131 22.7892 10.7746 23.0042 10.9815C23.2191 11.1885 23.3902 11.4366 23.5071 11.7112C23.624 11.9857 23.6844 12.281 23.6846 12.5794C23.6848 12.8778 23.6248 13.1732 23.5083 13.4479C23.3918 13.7226 23.221 13.971 23.0063 14.1782C22.7916 14.3855 22.5373 14.5473 22.2587 14.654C21.98 14.7608 21.6827 14.8102 21.3845 14.7995C20.8102 14.7787 20.2663 14.5361 19.8673 14.1227C19.4682 13.7092 19.245 13.1571 19.2446 12.5824C19.2442 12.0078 19.4667 11.4553 19.8652 11.0413C20.2637 10.6273 20.8072 10.384 21.3815 10.3625ZM17 0.469971C7.8875 0.469971 0.5 7.85597 0.5 16.97C0.5 26.0825 7.8875 33.47 17 33.47C26.1125 33.47 33.5 26.0825 33.5 16.97C33.5 7.85597 26.1125 0.469971 17 0.469971Z" fill="#0089DB"/>
</svg>
